<?xml version="1.0" standalone="no"?><!-- Generator: Gravit.io --><svg xmlns="http://www.w3.org/2000/svg" xmlns:xlink="http://www.w3.org/1999/xlink" style="isolation:isolate" viewBox="0 0 1200 1000" width="1200" height="1000"><defs><clipPath id="_clipPath_umwVOmfTsctSj9enrsNDEj5VyycrpB2D"><rect width="1200" height="1000"/></clipPath></defs><g clip-path="url(#_clipPath_umwVOmfTsctSj9enrsNDEj5VyycrpB2D)"><g id="Group"><path d="M 390.568 793.571 L 567.5 616.857 L 744.432 793.571 L 581.655 956.148 C 573.842 963.951 561.158 963.951 553.345 956.148 L 390.568 793.571 Z" style="fill:none;stroke:#5D5D5D;stroke-width:15.003923042561453;stroke-linecap:square;stroke-miterlimit:3;"/><rect x="619.399" y="491.824" width="250.065" height="250.065" transform="matrix(0.708,-0.707,0.708,0.707,-218.738,707.01)" fill="none" vector-effect="non-scaling-stroke" stroke-width="15.004" stroke="rgb(93,93,93)" stroke-linejoin="miter" stroke-linecap="square" stroke-miterlimit="3"/><rect x="442.467" y="315.11" width="250.065" height="250.065" transform="matrix(0.708,-0.707,0.708,0.707,-145.45,530.142)" fill="none" vector-effect="non-scaling-stroke" stroke-width="15.004" stroke="rgb(93,93,93)" stroke-linejoin="miter" stroke-linecap="square" stroke-miterlimit="3"/><rect x="265.535" y="491.824" width="250.065" height="250.065" transform="matrix(0.708,-0.707,0.708,0.707,-322.228,456.945)" fill="none" vector-effect="non-scaling-stroke" stroke-width="15.004" stroke="rgb(93,93,93)" stroke-linejoin="miter" stroke-linecap="square" stroke-miterlimit="3"/><path d="M 567.5 263.429 L 730.277 100.852 C 738.089 93.049 750.774 93.049 758.586 100.852 L 1084.141 426.006 C 1091.953 433.808 1091.953 446.478 1084.141 454.28 L 921.364 616.857 L 567.5 263.429 Z" style="fill:none;stroke:#5D5D5D;stroke-width:15.003923042561453;stroke-linecap:square;stroke-miterlimit:3;"/><path d="M 50.859 426.006 L 376.414 100.852 C 384.226 93.049 396.911 93.049 404.723 100.852 L 567.5 263.429 L 213.636 616.857 L 50.859 454.28 C 43.047 446.478 43.047 433.808 50.859 426.006 Z" style="fill:none;stroke:#5D5D5D;stroke-width:15.003923042561453;stroke-linecap:square;stroke-miterlimit:3;"/></g></g></svg>